<?xml version='1.0' encoding='utf-8'?>
<svg xmlns="http://www.w3.org/2000/svg" version="1.1" viewBox="0 0 330.24 395.04"> <path d="m69.297 381.74-14.762-0.0449 0.35076-5.3386c0.50444-8.808 1.4383-17.863 2.111-24.489 0.85362-9.8804 1.4521-16.844 2.0115-18.05 0.69985-1.5226 1.156-3.3054 1.7822-4.6606 1.748-4.1336 3.7088-8.6862 5.0764-12.511 0.96682-2.4844 2.7545-6.5391 3.2603-6.5391 0.4962 0 0.45385 2.1163-0.06919 3.4574-0.92194 2.679-1.6118 5.393-2.45 8.0626-0.84203 2.6737-1.656 5.5826-2.4178 8.64-1.0815 4.341-1.881 12.431-2.1584 21.84-0.07005 2.376-0.36892 7.02-0.66417 10.32-1.2706 14.201-1.2705 14.228 0.01373 14.548 1.3957 0.3477 122.94-0.0997 148.75-0.54749l18.48-0.32065c-0.30408-4.5857-0.93127-8.4373-1.2424-12.24-0.81258-10.194-1.3452-16.345-1.8911-21.84-0.28854-2.904-0.70865-7.44-0.9336-10.08-0.66882-7.8496-1.0211-9.4564-2.5782-11.76-2.1234-3.1414-5.9183-8.2127-7.1838-9.6-1.5543-1.7039-4.1709-5.5975-4.1709-6.2065 0-0.28243 0.20619-0.51351 0.45819-0.51351 0.6381 0 1.2391 0.62658 11.238 11.717 1.8828 2.0882 3.9094 4.3121 4.5034 4.9418s1.08 1.6587 1.08 2.2866c0.4035 3.8229 1.0981 7.768 1.4154 11.295 0.27237 3.036 0.83831 8.544 1.2577 12.24 1.2859 11.333 1.6358 14.669 2.1393 20.4 0.2668 3.036 0.71892 7.4378 1.0047 9.7818 0.42464 3.4826 0.4011 4.6863-0.12873 5.022-0.3566 0.22598-3.8884 0.0658-7.8484 0.0711-3.96 5e-3 -37.548 0.0626-74.64 0.12735-37.092 0.0648-73.898 0.0605-81.791-0.01zm217.7-38.784c-7.8754-1.6749-14.254-6.7028-26.47-20.863-1.188-1.3772-2.8158-3.1793-3.6174-4.0046s-3.389-4.0926-5.7499-7.2606c-3.3997-3.389-5.8818-8.4453-8.8728-11.644-3.9803-4.9898-7.6942-10.022-12.317-14.828-1.3815-1.3904-4.524-4.7026-6.5749-6.4685-2.2363-1.9799-6.125-5.6542-9.6206-9.4201-2.6175-2.82-3.1756-2.9518-7.4139-1.7513-3.4228 0.96957-12.253 5.2869-13.89 6.7913-3.3602 2.6623-7.3014 5.5878-9.6733 9.24-1.7624 3.076-2.1653 4.2848-2.3445 7.0347-0.17306 2.6557-0.0857 3.0119 0.86295 3.5196 0.58053 0.31069 1.9181 1.3442 2.9724 2.2966 1.0795 0.77951 2.4435 1.5729 4.8775 0.83866 6.0283-1.8184 9.545-0.9628 12.193 2.9667 1.5656 2.323 2.3056 5.841 1.9871 7.141-0.92745 2.4536-0.99547 2.795 0.0643 3.8548 1.2866 1.0537 0.73182 6.028-0.0429 7.3518-2.5642 4.1436-3.2872 4.4359-2.9322 0.91361 0.40296-4.0114-0.45106-4.2467-3.4936-7.0365-0.93239-0.87945-1.6953-1.9196-1.6953-2.3116 0-1.2512 0.96501-2.5694 1.8809-2.5694 0.56512 0 0.97042-0.43559 1.1165-1.2 0.38161-1.9962-0.1296-3.4234-1.8095-5.0516-1.8835-1.8256-4.3186-2.1117-6.9018-0.81101-0.89856 0.45245-1.9786 0.82247-2.4 0.82228-0.73031-3.3e-4 -3.9499-1.9541-6.6444-3.5461-1.0735-0.71279-3.1938-2.2186-3.7218-2.518-0.83921-0.4759-0.9416-0.95903-0.81376-3.84 0.25347-5.7125 2.9947-12.454 6.624-16.292 3.5736-4.0432 6.9011-5.7768 10.75-7.6181 1.7432-0.80719 4.7682-2.0293 7.0781-2.6963 5.9211-1.5756 13.221-3.2184 20.162-2.8992 1.7231 0.0792 1.2494 0.93471-0.72 1.3004-2.2274 0.41358-5.8855 1.9433-5.8642 2.4522 0.0283 0.6744 10.611 7.0504 18.458 11.121 5.8138 3.0156 8.8433 3.6179 16.067 3.1943 10.447-0.61266 9.7538-0.66934 10.491 0.85744 1.0539 2.1832 0.29328 3.6473-4.2678 8.2154-2.3563 2.3599-4.2842 4.461-4.2842 4.6689 0 0.20797 0.5457 0.73569 1.2127 1.1727 2.0603 1.35 5.0115 0.59765 9.2694-2.363 3.7212-2.5874 7.3231-4.0454 10.417-4.6495 2.8183-0.55028 6.4616-1.2809 6.8862-1.7055 0.73362-0.73362-3.6912-3.1815-6.805-3.7646-1.0007-0.1874-2.7827-0.75362-3.96-1.2583-1.6776-0.71912-2.1405-1.1646-2.1405-2.0602 0-1.5366 2.5153-2.834 6.5778-4.9668 1.6212-0.85106 3.4491-2.2732 3.6598-3.9717 0.6282-4.9616-1.2193-6.918-3.1293-10.901-0.77875-1.6273-3.2167-4.255-4.535-5.5062-4.7638-3.7908-10.141-8.3425-15.053-11.089-5.4533-3.5866-11.649-6.7836-16.73-10.472-6.439-4.1905-12.059-7.2546-16.39-9.6062-3.4884-1.948-7.2981-3.9937-11.571-6.3976-9.0335-5.1718-16.3-8.3532-22.269-11.117-6.6736-2.8148-13.756-6.5455-19.656-9.597-3.4189-1.7672-7.6309-4.143-9.36-5.2796-5.3878-3.595-10.748-6.3914-16.344-9.1215-6.1116-2.8917-9.6791-5.9956-15.36-9.0258-2.5606-2.0249-5.9098-3.497-8.16-5.36-2.736-1.6158-4.8723-3.71-7.2562-5.52-3.8268-2.8916-18.578-17.354-19.178-18.803-0.31444-0.75911-0.83217-1.5371-1.1505-1.7288-0.70978-0.42751-3.8545-6.9384-5.1008-10.561-2.1832-6.3454-0.49633-15.984 3.547-20.268 4.5112-4.7794 6.8061-6.1714 13.058-7.9208 3.7572-1.0513 12.195-1.6719 15.824-1.1638 2.9106 0.4076 8.0832 2.9423 11.01 4.8416 1.7014 1.0734 2.7671 1.8219 4.0342 2.7176 2.2712 1.5948 4.56 1.8544 6.6215 0.75114 1.6644-0.89074 1.7011-0.89033 2.2163 0.0249 0.68035 1.2085 6.5868 6.7956 8.7073 8.2365 2.5072 1.7037 6.533 3.0723 9.0379 3.0726 1.8247 1.9e-4 2.5453-0.26915 3.8098-1.424 1.783-1.6285 2.3208-1.4298 3.7681 1.3922 1.2339 2.4059 2.3157 3.5142 4.8946 5.0148 1.8165 1.0569 2.8864 1.317 5.6279 1.3678 2.7206-0.14728 3.2426-0.24016 4.3311 2.0755 1.0586 2.252 4.4344 5.0141 6.1282 5.0141 2.0373 0 5.6495-1.9401 6.7565-3.6289 0.69419-1.059 1.3169-1.5276 1.7891-1.3464 1.8473 1.7188 4.0528 3.0361 6.2178 3.791 2.063 0.70039 2.8432 0.73003 5.9641 0.22657 6.5047-1.0493 6.8348-1.983 2.0373-5.7623-2.2921-1.8944-4.1244-3.6739-6.281-5.7252l-3.0509 0.2849c-3.6287 0.33885-6.033-0.33295-8.6185-2.4082-1.7949-1.4407-1.847-1.4507-4.5889-0.88438-5.1506 1.0638-8.2802 0.4322-10.915-2.203l-1.64-1.64-2.4531 0.58849c-3.0504 0.73178-6.6605 0.33736-9.2513-1.0108-1.9694-1.0248-5.5758-4.5065-5.5758-5.3831 0-0.2647-0.77-0.33836-1.8058-0.17273-1.0317 0.16497-2.761 1e-3 -4.0343-0.38195-2.5206-0.75859-8.6831-3.6677-11.92-5.6269-1.188-0.71911-3.1274-1.4445-4.3099-1.6119-2.6198-0.37096-2.8901-0.52429-2.8901-1.6389 0-1.6655 2.7639-2.4186 9.1914-2.5043 4.9125-0.0655 6.2166 0.0712 7.6086 0.79747 1.5005 0.8115 2.976 1.1469 4.56 1.4773 4.8102 1.0034 10.69 3.0976 14.082 5.5575 1.0728 0.88519 2.3208 1.0673 3.3132 1.3837 6.0566 1.4178 8.8465 2.4305 13.324 5.0084 1.2207 0.75499 2.6384 1.0397 3.9556 0.91642 2.9372-0.13407 7.8614 1.2559 8.1683 0.37585 0.25544-0.73241-3.7517-4.6011-6.4651-6.2416-9.2965-5.6208-15.068-8.8909-20.48-11.604-2.9973-1.5542-8.1859-3.6328-12.059-5.0888-6.5626-2.4838-12.318-3.5409-13.584-2.4949-1.0806 0.8932-6.4482 3.0963-9.456 4.4615-4.615 2.0635-10.383 3.5103-14.103 2.9647-3.8963-0.74116-7.6139-1.6811-10.002-2.3224-3.3138-0.74184-7.3245-0.31807-9.975 0.262-3.8454 0.84157-7.1989 1.9184-8.6613 2.7813-3.4138 2.0414-3.4384 1.7124-1.7878-2.2694 0.68529-2.1019 2.6329-4.3228 3.4611-5.9739 1.7171-3.4358 2.6971-6.4117 2.2325-10.553-0.0863-0.924-0.31879-3.138-0.5166-4.92-0.30283-2.7279-0.24515-3.24 0.36489-3.24 0.76362 0 1.3073 0.97002 1.3073 2.3325 0 1.2464 2.345 5.6221 4.2188 7.7045 2.4327 2.6684 4.9287 5.5917 7.1481 7.8729 2.5408 2.5251 4.9342 3.7806 7.5574 3.4476 5.3172-0.44932 12.081-2.8294 16.16-5.6866 2.6542-1.8591 6.259-5.8724 7.3544-8.1878 1.1915-2.5186 2.5503-8.7339 2.0244-9.2598-0.15644-0.15645-1.6972 0.17933-3.4239 0.74617s-3.3509 1.0306-3.6094 1.0306c-0.87996 0-0.47206-1.2451 1.9433-5.9316 2.6822-5.2044 2.6957-4.7208-0.25324-9.0871-1.2886-1.908-2.1264-2.6365-5.1334-4.4639-1.564-1.0997-3.1342-2.2105-4.8201-3.0773-0.0696 6.2e-5 -0.14055 1.9981-0.15771 4.44 0.26307 3.7353-1.0079 5.9578-2.1288 9.136-0.74116 1.8753-1.5285 3.4507-3.0564 4.326-1.7541 0.90398-3.1773 1.4295-4.854 2.505-0.71678 0.42258-0.31929 0.99449 3.0025 4.32 5.6742 5.6805 5.7813 7.7635 0.2714 5.2771-1.5419-0.69582-4.0995-1.8393-5.6835-2.5412-3.3684-1.4924-6.0175-3.3734-8.5056-6.0394-2.6713-2.8624-3.4407-4.8153-3.6472-9.2581-0.19077-4.1038 0.71072-8.5319 2.7739-11.915 2.6051-3.739 4.8282-5.6155 7.7872-7.5288 2.751-1.9254 10.868-4.0857 15.151-4.0327 1.3857 0.01716 2.5197-0.15945 2.52-0.39249 9.6e-4 -0.75447-2.0498-2.2295-5.1699-3.7185-3.6673-1.7502-9.1361-2.0904-11.891-0.80212-3.6314 1.75-4.5868 2.3285-7.0447 3.9962-2.9246 1.965-6.2972 5.6287-9.3305 9.9731-0.78845 1.0022-2.3302 3.2904-3.0436 4.1952-2.0588 2.6572-3.8632 5.646-4.6184 5.9358-0.44836 0.17205-1.1089-0.19625-1.8322-1.704-0.84324-2.2979-1.6703-3.7044-2.8559-5.1916-1.1203-1.3964-2.0621-2.9964-3.2733-4.5804-3.7061-4.4267-7.5078-8.9948-12.968-11.005-7.0252-2.7999-12.279-2.9442-18.597 0.0013-1.8936 0.87734-6.0862 4.4358-5.6458 4.7919 0.06066 0.04905 2.3783 0.21039 5.1503 0.35853 7.3777 0.39428 12.904 1.2237 15.358 2.3051 5.2788 2.3261 10.05 6.8074 12.421 11.666 2.0145 4.2363 1.663 9.6196-0.51855 13.489-0.67725 1.1539-1.6944 2.7368-2.5375 3.6664-1.058 1.1554-1.8799 1.7375-2.4394 2.4466-2.0236 2.1864-1.889 0.9599-1.1058-1.44 0.64623-2.0775 0.08522-3.09 0.03432-4.08-0.08099-1.5753-0.24232-1.8-1.2925-1.8-1.1518 0.41386-1.7245 1.075-2.7371 1.7802-0.87568 0.77229-2.5505 1.1628-4.1152 1.5633-3.5718 0.71971-8.3545 0.98266-11.498-1.1123-5.4695-4.3987-7.5357-8.6839-7.4345-15.418 0.03163-2.105 0.3205-4.3187 0.64191-4.9193 0.32142-0.60058 0.45803-1.2183 0.30357-1.3728-0.53131-0.53131-4.9189 1.772-6.3588 3.3382-5.4861 5.967-5.1177 13.747 0.95923 20.257 0.76003 0.8142 6.5698 4.7904 8.1589 5.5839 1.6937 0.84576 6.635 2.0773 10.199 2.5421 1.3857 0.18069 2.6302 0.50777 2.7656 0.72685 0.36105 0.58418-2.7231 2.5683-4.953 3.439-4.9911 1.8187-10.468 2.4055-15.488 0.76418-3.6258-1.2929-7.9941-4.113-9.8967-6.3892-0.98494-1.1783-2.0691-2.1424-2.4092-2.1424-0.9011 0-0.80382 5.5454 0.18808 10.722 1.0972 5.7257 0.95404 7.0626 7.6947 9.157 6.7374 1.9296 10.95 2.6065 20.652 2.5851 10.785-0.0237 11.35 0.087 10.901 2.1352-0.60647 2.7612-5.448 5.7124-11.254 6.8599-6.7979 1.2095-12.468 1.6592-17.564 1.7041-3.7203 0.0257-6.9603 0.18861-7.2 0.36195-1.3046 0.94347-2.3052 6.8047-1.2709 7.444 0.23697 0.14646 1.1808-0.35187 2.0974-1.1074 2.6937-2.2204 6.1119-3.9338 7.5229-3.7709 1.1513 0.13288 1.3112 0.37502 1.4422 2.1833 0.11801 1.6295-0.14464 2.4582-1.3211 4.1681-0.80763 1.1738-2.1258 2.6024-2.9293 3.1745-1.4669 1.0445-2.8615 1.0922-6.2897 0.21529-1.5725-0.40226-1.7226 0.0169-1.9329 5.3966-0.15677 4.0108 0.30937 5.0758 1.3391 3.0594 0.67652-1.3247 2.1019-2.4128 3.1866-2.4325 0.99947-0.0181 1.0501 0.8737 0.29912 5.2647-0.65516 3.853-0.71041 7.9063-1.1409 11.654-0.35193 3.0166-0.29836 3.3403 0.73477 4.44 0.6129 0.6524 1.2932 1.1862 1.5118 1.1862 0.21856 0 1.0989-0.7266 1.9563-1.6147 1.9297-1.9987 4.4241-2.6047 5.7568-1.3987 1.4527 1.3147 2.4638 3.9519 3.3735 8.7989 0.61932 3.3 0.29749 4.6635-1.5594 6.6066-0.60402 0.81166-1.4807 1.8442-1.9318 2.4879-0.74077 0.82351-0.35633 1.5535 0.48672 3.4496 1.583 3.5604 2.7322 4.4728 3.6499 4.3165 0.99095-0.0847 1.4815-0.26883 2.1881-0.40929 1.1377-0.22617 1.5345 0.0935 3.4675 2.7939 1.2005 1.6771 2.9432 3.9133 3.8726 4.9693 2.7524 3.1274 2.9927 3.6683 3.3513 7.5431-0.03782 3.0727 0.29095 3.6712 2.7253 5.1691 2.8425 2.0177 2.362 1.2203 2.1085-1.7947-0.20142-2.3962-0.09542-3.5051 0.39982-4.1824 0.64332-0.8798 0.73102-0.88423 1.9316-0.0976 1.641 1.0752 8.5435 8.273 10.427 10.873 1.2307 1.6989 1.444 2.3905 1.3108 4.2502-0.20772 2.9013 0.88756 3.2374 2.241 0.68785 1.3344-2.5138 3.2038-2.686 5.5259-0.50903 2.7982 2.6226 5.9308 4.6752 8.426 7.6188 1.6352 1.9573 1.717 2.2158 1.4289 4.5215-0.61758 2.4964 0.03043 2.69 1.9712 4.1029 6.6663 4.8529 9.6401 5.4539 12.557 2.5373 0.54468-0.54469 0.87841-0.51335 2.0845 0.19581 0.78978 0.46438 1.8585 1.2364 2.3748 1.7156 1.5284 1.4184 8.2185 4.6488 9.6274 4.6488 1.7057 0 3.2522-0.61996 4.6909-1.8805 1.3825-1.2113 1.2324-1.2527 4.0465 1.1165 1.2256 1.0318 2.6967 2.1118 3.2691 2.4 0.57245 0.28818 1.4567 1.28 1.9651 2.204 1.5229 2.768 2.8067 3.8496 6.7194 5.6608 3.9152 1.8124 4.1551 2.1315 4.945 6.5773 0.81459 3.8166 2.0878 7.6311 2.3267 10.922 0.33526 4.7653-0.18555 9.1134-1.3779 11.503-1.8892 3.4158-3.1728 5.146-4.8203 6.8446-3.9818 4.0982-4.8924 4.5881-15.12 8.1347-7.1617 2.4834-6.8883 2.4717-8.9779 0.38407-4.5262-4.522-9.435-5.9822-13.987-4.1608-2.773 1.1095-4.2143 5.014-1.8509 5.014 1.2926 0 2.256 0.82722 2.256 1.9372 0 0.43188-0.74851 1.746-1.6633 2.9202-2.1402 2.7471-3.3631 7.3008-2.9361 10.934 0.16973 1.4442 0.5445 2.91 0.8328 3.2574 0.32192 0.3879 0.33986 0.63162 0.0465 0.63162-0.72138 0-3.4702-3.3828-4.2406-5.2186-0.93768-2.2345-0.89501-8.1797 0.0686-9.5554 0.4113-0.58721 0.62347-1.2688 0.4715-1.5147-0.15198-0.2459-0.46268-1.4447-0.69047-2.664-0.58747-3.1446 0.2033-5.8996 2.24-7.8041 1.9991-1.8694 4.523-2.6225 8.8718-2.6476 2.7317-0.0157 3.7264 0.22792 6.3338 1.5514 1.7013 0.86352 3.915 2.4041 4.9194 3.4234 2.1198 2.1514 3.6324 2.0268 6.8733 0.98322 3.1641-1.2512 6.4446-2.7208 8.9928-4.2119 3.3458-1.9691 4.9968-3.3088 6.6096-5.3632 1.0339-1.3466 2.0874-2.9371 2.6674-4.7434 0.5466-1.8277 0.35624-7.1738-0.29398-10.235-0.42147-1.9843-2.5191-5.1895-4.4402-6.7848-1.8754-1.5573-7.0688-3.7317-12.902-5.8844-5.3262-1.9296-9.5354-3.5714-13.9-5.5709-3.8666-1.6788-6.9143-2.9899-10.98-5.0077-8.2693-4.1176-15.529-8.2238-20.965-11.6-1.2348-0.76563-4.3325-2.688-6.8837-4.272-3.8749-2.5674-7.9722-5.7217-11.365-8.52-5.6131-5.011-10.383-9.5466-15.026-14.513-1.4266-1.5218-4.3038-5.3987-5.8992-7.5673-2.9169-4.3086-6.2379-8.7308-8.7408-13.697-2.6557-5.3971-5.2464-10.67-6.8288-14.81-1.0818-3.3649-3.0545-8.2508-3.9988-11.454-1.9942-6.5124-2.7616-11.92-3.776-18.24-0.23104-1.4508-0.38301-3.168-0.52071-5.28-0.5964-5.9134 0.22085-11.466 0.45473-17.091 0.12515-3.0642 0.55759-4.3031 1.1074-5.8734 0.48625-1.6276 0.73891-2.3772-0.0613-4.009-0.68694-2.1344-0.68777-3.2838-1.2652-5.4428-1.0084-4.398-1.1727-15.407 4.8e-4 -20.473 1.4327-6.187 3.3637-14.821 4.9913-18.51 1.6576-4.2582 3.6443-7.8958 6.1474-11.727 1.8111-3.141 4.6914-6.7499 7.6104-9.0065 3.9251-2.9916 11.744-7.0055 15.565-7.9908 3.7254-0.99595 7.8688-1.9587 11.87-2.8051 6.0656-1.2932 18.959-2.2565 23.972-2.1663 4.2975 0.07735 9.7368 0.8302 14.812 1.7856 5.7954 1.2496 10.869 2.908 15.12 4.6726 4.5185 1.7269 12.585 7.648 15.129 11.238 2.2078 2.8352 4.3001 6.449 5.2853 9.8871 0.56935 2.3195 1.3519 4.4694 1.8968 6.4721 1.0256 3.8225 2.9882 12.534 3.3522 14.88 0.57051 4.4975 2.4472 9.0966 3.3722 13.058 0.69685 2.369 1.2557 4.2542 2.5177 6.0994 1.2198 1.7659 1.9288 2.5384 3.6007 3.3602 0.79192 0.33897 2.7869 1.0456 4.9498 1.6647 5.8976 1.9674 18.602 7.8802 22.057 9.9312 4.1058 2.504 10.13 5.9886 15.224 9.6194 4.2266 3.1102 10.934 8.532 14.923 11.79 7.4001 6.2694 15.329 13.596 21.572 20.336 3.324 3.5707 7.61 8.6069 8.7667 10.301 3.0503 4.2872 6.2804 8.0409 9.3802 12.24 3.6513 4.7848 7.1839 10.001 10.347 14.704 0.95357 1.4167 2.5415 4.0878 3.5286 5.9358 3.8708 7.2461 4.6729 8.666 5.2875 9.36 0.3507 0.396 1.2748 2.016 2.0537 3.6 1.528 3.083 3.2047 6.2892 4.4461 9.36 2.7049 5.957 5.4987 12.106 7.7104 18 2.4125 4.9907 4.2519 10.62 5.5853 15.044 2.5503 7.5113 4.5615 15.058 5.4127 22.636 0.21487 1.98 0.62935 5.22 0.92108 7.2 1.4576 9.8933 1.5236 14.4 0.21083 14.4-1.351 0-3.8281-1.3334-5.2232-2.8115-1.3964-1.4795-2.6269-1.9669-2.6269-1.0405 0 0.25738 0.648 1.8774 1.44 3.6s2.0914 4.59 2.8876 6.372c2.7932 5.8595 5.0394 11.633 7.4461 17.464 1.5094 3.2997 4.2708 10.325 5.4518 14.336 0.6405 2.3882 0.72093 1.0389 1.85 7.8406 0.73722 3.1235 0.48638 5.8158-0.31115 8.8259-0.46624 1.7597-1.1475 3.1576-1.8158 4.2136-1.2227 1.932-5.1696 4.7972-8.5588 6.2134-2.4879 1.0395-7.5388 1.2538-11.2 0.4751zm7.5246-10.53c2.7649-1.3887 3.9258-2.9227 3.9258-5.1874 0-2.2919-1.3233-4.7975-2.331-4.4135-0.98417 0.37506-7.969 4.2786-9.909 5.5377-0.792 0.51404-1.71 1.0681-2.04 1.2313-1.0426 0.51546-0.65274 1.9842 0.86589 3.262 1.3072 1.0999 1.7719 1.2079 4.2918 0.99701 1.632-0.13655 3.8275-0.73953 5.1965-1.4271zm-22.69-15.082c4.2101-2.3593 9.0764-4.513 13.176-6.0295 6.2729-2.3072 8.3768-3.2121 9.24-3.9742 1.1274-0.99531 2.0552-3.123 0.12705-5.4555-0.6727-0.86132-1.25-1.5143-1.8548-2.2773-1.3936-1.1566-13.647 2.9125-16.632 5.5232-1.7162 1.4955-3.2715 2.9293-5.1077 4.3655-4.7224 3.6774-5.4454 5.1674-3.5136 7.2408 1.017 1.0916 3.7003 1.4484 4.5653 0.60696zm14.847-58.956c-0.41324-0.98758-0.74137-3.1234-1.5189-6.2444-0.46475-2.0888-1.2349-4.3653-1.8998-6.4229-0.57577-2.2471-0.57305-2.4223-2.76-2.2739-2.743 0.18606-5.8661-0.45901-8.6925-1.7954-3.9148-1.851-9.3852-5.3749-12.72-8.1938-6.1883-5.248-13.427-9.6661-19.752-13.881-6.493-4.3767-19.747-9.1556-21.905-7.8978-0.75314 0.43902-0.83746 0.64574 0.55336 1.3179 5.0887 2.7748 10.572 5.2586 15.869 8.5253 8.0383 5.1122 14.413 8.9142 21.618 14.141 6.0637 4.4193 10.604 6.6187 15.199 10.193 3.088 2.5522 6.509 5.4419 9.297 7.7276 1.848 1.5143 3.99 3.4038 4.76 4.1989 1.5543 1.605 2.491 1.8957 1.9512 0.60563zm-5.5112-20.104c0-0.7526-0.16414-1.4581-1.5205-6.5357-0.33499-1.254-0.83191-2.3194-1.1043-2.3675-1.3429-0.0481-2.8712-0.10545-5.7752-0.12745-4.4879-0.034-6.4172-0.6264-8.6612-1.6158-2.8685-1.2648-6.7153-4.1926-9.2143-6.368-5.1265-4.3733-11.417-8.3575-15.411-10.644-4.166-2.4791-9.7934-4.532-12.006-4.9058-2.3796-0.40203-6.3075 0.0669-6.3075 0.75307 0 0.25611 0.27 0.53637 0.6 0.62281 2.3117 0.60548 4.9046 1.5811 7.8 2.9347 4.5911 2.4135 9.2732 4.2608 14.043 7.2858 4.9971 3.1904 10.099 7.1444 14.631 11.072 3.2887 2.3668 6.8257 4.9634 10.206 6.2798 3.2753 1.7089 6.464 2.7361 9.5788 3.9202 1.9441 0.88886 3.1412 0.56194 3.1412-0.30431zm-3.84-12.48c0-0.65479-1.1161-4.3368-1.7628-5.8157-0.59382-1.3579-0.91341-1.56-2.4665-1.56-4.2067-0.69978-8.852-2.7262-11.731-4.8064-3.287-2.6978-6.8655-4.7142-9.7502-7.7196-1.8511-1.9511-5.2237-4.9728-7.6621-6.1258-1.1915-0.46308-2.0508-0.79224-3.2277-1.2129-2.1554-0.51209-1.6577 1.1221 1.3899 4.5641 3.7736 4.262 5.5706 5.9764 10.161 9.695 6.2798 5.0867 8.9405 6.6477 17.849 10.472 6.6101 2.8374 7.2 3.043 7.2 2.5098zm-3.5044-11.576c-1.4882-4.8762-6.569-14.39-8.4444-17.67-1.4973-2.9431-2.8554-5.4971-3.8551-7.4099-0.93805-2.3534-2.7227-4.528-3.9716-6.3818-2.4023-3.5794-8.0277-7.0491-11.849-8.3173-2.89-1.0485-6.5768-1.4752-9.8688-0.93746-1.1281 0.21164-1.7063 0.58581-1.7063 1.1043 0.99027 3.0791 1.8389 6.0721 2.4609 9.4344 0.24771 2.0399 0.17539 3.658-1.0207 3.658-1.1284 0-5.4053-2.677-7.5101-4.7008-2.0789-1.9989-3.5037-2.7176-4.1353-2.086-0.71982 0.71982-0.46609 2.4412 0.34803 4.1748 0.67018 1.7241 0.81609 3.2773 0.87326 4.6593 0.0942 2.2775 3e-3 2.5271-0.97608 2.6661-1.0261 0.0476-1.9929-0.60625-3.1553-1.4991-2.5925-1.9979-4.5709-3.3844-6.8047-5.4335-2.4129-2.2269-10.535-7.8609-11.333-7.8609-0.23511 0-0.42747 0.32606-0.42747 0.72456 0 0.89285 2.4177 5.248 3.9288 7.5578 0.75402 1.1525 1.6268 2.6676 2.1866 4.3176 2.4763 7.299 1.752 10.308-1.7907 7.44-0.73361-0.594-3.4396-2.484-6.0133-4.2s-5.6767-3.9488-6.8955-4.9618c-3.1977-2.6578-7.9133-5.565-8.3538-5.1502-0.20781 0.19566-0.13309 0.98492 0.16604 1.7539 1.8406 4.7317 2.4045 9.8735 1.2552 11.445-0.89224 1.2202-2.2045 0.65419-3.8346-1.6539-1.9201-2.1712-3.4232-4.1586-5.1158-6.2332-1.4081-1.9338-3.2661-3.5126-4.9963-5.04-3.4973-3.1824-7.5561-5.9967-11.337-8.0595-3.4564-1.8774-2.8426-1.8736-12.056-0.0749-2.0106 0.39252-3.9669 0.59426-4.3472 0.44832-0.39204-0.15045-0.95665-1.5577-1.3038-3.2496-0.90198-4.3965-1.6429-6.5389-2.356-6.8126-0.34847-0.13372-1.6306-0.0197-2.8492 0.25341-1.2322 0.27615-3.6578 0.35444-5.4647 0.17639-3.1086-0.0958-3.2258-0.10078-3.5364-3.0208-0.73422-6.9017-0.97964-7.237-4.414-6.0319-1.9622 0.68856-2.6405 0.72319-4.4729 0.2284-2.8277-0.76351-6.4362-4.4396-8.616-8.7776-1.6181-3.2201-1.9356-3.5687-2.6233-2.8796-0.19761 0.198-1.1423 0.58032-2.0994 0.8496l-1.7401 0.4896 5.9794 5.8358c3.2887 3.2097 5.6119 5.0765 6.9928 6.7104 4.4108 4.0833 10.12 8.4767 14.457 11.73 3.665 2.7077 6.4875 3.9673 9.8944 6.1841 1.9583 1.3863 5.2196 2.7131 7.5856 4.2722 1.1606 0.91297 5.1125 3.0053 10.97 5.8081 5.8915 2.9158 11.16 5.4418 16.8 7.9509 6.6862 2.7857 13.719 5.9708 21.579 7.5042 2.7755 0.49937 6.278 1.1732 9.0874 1.3447 1.3787 0 1.4475-0.0988 1.5874-2.28 0.14529-2.2642 0.15792-2.2798 1.8263-2.251 0.924 0.0159 2.544 0.1916 3.6 0.39033 2.3368 0.43977 10.141 0.46803 10.835 0.0392 0.28227-0.17445 0.43973-1.5308 0.36134-3.1124-0.0764-1.5418 0.0181-2.9603 0.21016-3.1523 0.19199-0.192 1.262-0.0478 2.3778 0.32046 1.1158 0.36825 3.3802 0.6393 5.0319 0.60235 3.9571-0.0885 4.7041-0.80921 4.7041-4.5384 0-1.5232 0.2183-2.9879 0.48511-3.2549 0.32709-0.32739 1.3098-0.2438 3.0169 0.25661 3.4191 0.83078 7.2505-0.12092 10.045-1.98 2.1971-1.4796 3.4925-2.0403 3.4925-1.5116 0 0.69321-0.97936 2.2506-1.4473 3.1916-0.93941 1.8892-2.04 4.2915-1.7306 6.2266 0.54825 3.2684 2.6996 5.3263 4.1378 7.9027 2.3058 3.2029 7.9552 8.772 11.087 10.831 1.5821 0.98147 3.1189 2.2542 4.9288 2.877 0.2288 1e-3 0.30062-0.37504 0.15963-0.83704zm-65.856-44.28c2.3484-0.60236 3.1195-1.0222 3.6302-1.9765 0.39779-0.74327 1.0402-0.90353 3.622-0.90353 2.0777 0 4.3514-0.40717 6.7271-1.2047 4.8194-1.6178 6.0286-2.4508 5.8456-4.0269-0.14166-1.2199-0.21631-1.2449-3.265-1.0954-1.716 0.0842-4.3288-0.0816-5.9434-0.53314-3.1337-0.93284-3.7686-0.89294-5.9459 0.0868-2.4694 1.1112-8.5157 1.7581-12.211 1.0359-1.6611-0.32468-4.3617-1.2559-6.0014-2.0694-2.7561-1.3674-3.1186-1.4345-4.8-0.88811-5.7619 1.8723-13.096 0.3797-17.485-3.5587-1.5023-1.3479-1.972-1.5205-3.36-1.235-2.3078 0.47465-6.258-0.16628-8.7762-1.424-1.1908-0.59473-3.2831-2.176-4.6494-3.5139-2.4522-2.4013-2.5191-2.4309-5.1937-2.2983-2.3846 0.27481-5.3346-0.47353-6.9059-1.1873-2.2254-0.99221-5.2258-3.4597-6.6714-5.2077-0.655-0.792-1.3302-2.0114-1.5004-2.7097-0.29429-1.2072-0.50474-1.2868-4.273-1.6158-4.0101-0.35012-5.827-0.9839-8.0899-2.822-3.1066-2.4436-6.2537-5.207-9.1093-7.4925-2.3918-1.8482-4.09-4.169-6.6843-5.7477-2.3058-1.9495-6.7201-2.5227-11.139-1.4962-2.8056 0.65175-3.4164 1.5723-3.3138 4.9943 0.11468 3.8218 0.62418 4.2977 2.4325 2.2723 1.381-1.5468 1.5202-1.5908 4.1668-1.3177 2.0331 0.20984 3.2421 0.66352 4.6958 1.7622 3.3837 2.3097 6.8371 4.9869 9.5472 7.5168 2.0622 1.934 3.8982 3.4952 4.08 3.4694 2.1139-0.30079 3.6692 0.24081 5.3603 1.8666 5.3664 5.1592 7.3519 6.5353 10.144 7.031 2.1601 0.43988 3.4913 2.2322 5.1943 3.2792 2.3325 1.6726 4.494 2.9026 6.7265 4.6681 0.62256 0.53995 1.5336 0.90604 2.7291 0.99655 3.209-0.12634 4.9584 0.45086 7.6423 1.4793 1.7713 0.74116 2.565 1.4676 4.5358 3.4163 2.2821 2.2566 5.6104 2.9856 7.0516 1.5444 1.0867-1.0867 2.6069-0.60751 10.882 3.4305 7.6394 3.7277 9.6754 4.2034 12.99 3.035 1.494-0.52663 2.3816-0.27345 6.0341 1.7212 3.7911 1.2014 7.6478 1.6905 11.28 0.71845zm24.501-16.808c1.1586-0.4405 1.2521-0.65374 0.9627-2.1962-0.9797-2.6687-1.8767-6.0278-3.7707-7.9207-1.3242-1.3064-1.9805-1.5787-3.96-1.6432-2.1533-0.0701-5.2858-1.2184-7.5478-2.7667-0.73818-0.50528-1.0991-0.30754-2.64 1.4464-2.9888 3.1968-5.6243 4.1917-9.9786 2.8782-2.2804-0.74041-3.1383-0.81626-4.5111-0.39885-2.4715 0.75147-2.9125 0.75933-5.2952 0.0944-2.5045-0.69889-5.3506-2.2487-5.9038-3.215-0.54296-0.94827-0.92622-0.86068-3.6541 0.83508-3.117 1.9376-5.2947 1.9676-8.7204 0.12-2.6493-1.4289-6.3444-4.5961-7.1616-6.4805-0.37404-0.86249-0.62578-1.024-1.9409-0.81375-1.7089 0.27326-3.7544-0.18105-5.4-1.157-3.5894-2.1208-5.6191-3.8085-5.6191-4.6724 0-0.62261-0.76002-0.90444-2.3628-0.46616-2.241 0.58283-6.0364 1.1991-8.1972 0.70857-0.924-0.20976-2.4465-0.7692-3.3833-1.2432-1.7279-0.87427-6.4219-5.3115-8.6227-8.1509-1.2092-1.8964-1.3785-1.4388-3.0904-0.27713-1.6251 1.1028-2.1857 1.2339-4.074 0.95229-3.1798-0.47414-6.143-1.877-8.639-4.0898-2.3208-2.2-5.0266-4.354-7.4706-5.9652-4.5229-2.9609-10.064-2.1858-13.658 0.68526-2.475 2.0082-4.9712 5.8358-4.6432 6.1638 0.0798 0.0798 0.83072-0.094 1.6688-0.38614 3.2518-1.67 8.9273-1.0292 11.187 0.15235 2.6747 1.3984 5.7262 2.452 6.9596 1.5881 0.91062-0.63782 1.1475-0.51509 3.2601 1.6893 4.5153 3.8635 10.505 6.6281 14.035 8.1329 2.5529 1.0832 4.9947 1.3138 7.6627 0.72367 1.346-0.29771 1.7402-0.10473 3.5808 1.753 2.7337 2.759 5.5548 4.6696 10.507 7.1157 5.0628 2.5009 8.3323 2.9901 10.033 1.5013 1.4285-1.2502 1.7648-1.2562 2.7979-0.0495 1.2417 1.3829 4.095 3.1431 5.6489 4.6173 6.4054 6.1011 6.4599 6.1316 10.969 6.1361 2.2591 2e-3 4.5335-0.27139 5.3858-0.64804 1.568-0.69289 3.5502-0.43877 4.6111 0.59111 2.6217 2.5452 5.9529 3.4562 12.428 3.3988 2.615-0.0232 3.9913-0.46306 5.7082-1.1968 1.6995-0.72625 2.3066-1.8257 2.8007-2.8482 0.65881-0.95559 2.0455-0.41493 3.3406 0.11685 2.1824 0.7639 4.4732 2.2268 6.1982 3.0168 2.0802 0.92847 5.4824 2.0415 6.3976 2.343 1.2183 0.40138 2.7577 0.33573 4.1007-0.17487zm-115.45-92.695c3.3025-1.8561 5.7409-6.3298 5.7474-10.545 3e-3 -1.9872-1.0661-4.8619-3.831-5.95-2.5504-1.0037-6.9064-0.05972-10.029 3.6352-1.6806 1.9889-3.0882 4.1327-3.4177 8.4635-0.12604 1.6572 1.675 4.6726 2.9642 5.3277 1.6983 0.86298 6.2544 0.36746 8.5657-0.93158zm-5.2458-3.6907c-1.5198-0.54863-2.9026-2.2186-2.9134-4.7501-0.01-2.2265 0.40766-3.0388 1.8952-4.5263 3.6827-3.3915 9.4449-1.4429 9.2113 4.5174-0.0824 2.1019-0.67879 3.5218-2.761 4.5986-1.2817 0.66279-4.035 0.66477-5.432 0.16046zm4.5671-7.9047c0-1.0029-1.7281-1.5992-2.2523-0.77134-0.68382 1.08-0.39762 2.0887 0.87756 2.0887 0.75759 0 1.3747-0.8533 1.3747-1.3174zm-53.466 12.117c0.98203-0.27274 2.5765-1.2419 3.5434-2.1538 1.5742-1.4846 1.728-1.8423 1.4715-3.4226-0.16329-1.6792-0.94158-3.0009-1.5932-4.2502-1.2564-2.4268-3.6784-4.3023-6.4357-4.9966-1.8666-0.47002-3.2318-0.48539-5.4345 0.20745-4.8098 1.5129-7.4201 5.6984-5.8669 9.4073 0.82017 1.9585 3.6123 4.6182 5.2187 4.971 3.4207 0.75146 6.917 0.84267 9.0967 0.23732zm-7.5455-3.1723c-2.1143-1.1087-3.0973-2.5726-3.1093-4.6303-0.01723-2.9433 1.7946-5.6412 4.1775-6.2204 0.58749-0.14281 2.4205-0.03463 3.5041 0.2404 2.0685 0.52505 3.1571 2.3507 3.779 4.9116 0.51192 1.9844-1.0196 4.7993-3.3428 5.7289-2.0579 0.70971-3.6841 0.65113-5.0085-0.03018zm4.2864-6.832c0.36129-0.58458-0.69422-1.9389-1.9165-1.1509-1.14 0.73494-0.66958 1.9841 0.66357 1.9841 0.51242 0 1.1083-0.59914 1.2529-0.83323zm106.35 282.57c0-0.7069 0.29894-1.1222 0.59646-2.2225 0.32776-1.2121 0.90333-1.8566 0.71293-3.6699-0.23293-2.2182-0.83874-3.3364-1.7894-4.8869-1.7042-2.7796-1.7861-3.5526-0.26443-5.2959 1.097-1.4943 1.2023-1.3318 2.7152-0.48594 2.107 1.178 2.5416 0.57217 2.6008-3.6261 0.1184-8.3876 0.83695-15.767 1.6307-16.747 0.78776-0.97284 0.78978-0.97261 1.3307 0.14915 0.29793 0.61791 0.80882 2.4848 1.1353 4.1486 0.60334 3.0748 1.1625 3.8807 4.728 6.8148 1.5508 1.2762 2.1225 2.2349 1.7205 2.8854-0.24948 0.40367-4.9303-2.2059-6.4922-3.6194-1.2897-1.1672-1.5407-0.27958-1.6145 5.7087-0.0495 4.0228-0.27171 5.7496-0.89791 6.9791-0.92349 1.5973-1.04 1.7672-0.83208 3.4748 0.41895 3.441-1.3107 5.7845-3.5107 9.0513-1.5844 2.3528-1.7693 2.493-1.7693 1.342zm-10.497-18.262c-1.4045-1.8108-1.5508-2.2775-1.3018-4.1539 0.27225-2.0516 2.1928-5.8907 3.1922-7.2461 0.52229-0.70835-0.44102-3.5793-1.2993-5.5813-0.78968-1.842-2.5537-3.0587-4.4347-3.0587-1.852 0-6.4612 1.7709-9.1796 3.5269-5.4489 3.5198-6.7182 4.4177-6.7191 4.7531-4.8e-4 0.198-0.67177 0.36-1.4917 0.36-2.0728 0.16427-1.2061-0.25656-0.0261-1.32 1.8947-1.6585 3.9937-2.7482 6.0304-4.2 3.8432-2.6295 6.9838-5.2789 10.737-7.4754 2.4479-1.4325 4.9981-2.9286 5.6671-3.3246 1.9254-1.1396 2.5194 0.11461 2.4143 5.0975-0.27876 2.8056 0.62072 5.6795 0.82404 8.0156 0.16482 1.9499 0.33608 2.8664 0.56356 4.2329 0.14514 0.87233-0.11942 1.1133-0.58789 1.6335-2.4073 2.6732-3.9048 7.7719-2.5318 8.6205 0.56556 0.34953 0.65166 2.16 0.10272 2.16-0.2075 0-1.0893-0.918-1.9596-2.04zm-40.875-3.619c-2.218-2.218-2.7993-5.0098-1.9749-9.484 0.53995-2.9304-0.23847-5.1203-0.49365-6.7618-0.31669-2.953 0.64395-5.1729 2.0891-7.4133 1.3824-1.9893 5.3344-3.3219 8.4751-3.3219 2.9575 0 6.4414 0.97003 7.7557 2.1594 0.67012 0.60646 1.0978 0.5949 3.3838-0.0914 2.3989-0.7202 8.0478-3.0417 9.4374-3.8784 3.1249-1.8816 6.7672-3.9994 10.158-7.4516 2.0831-2.1797 4.2374-4.1864 5.7288-6.658 3.008-4.6449 6.1377-9.4683 7.2607-13.36 0.34282-1.188 0.81411-2.7862 1.0473-3.5516 1.2064-3.9597-0.0211-9.9698-2.2246-10.891-3.7821-1.83-7.4755-4.8711-10.767-6.6771-1.5595-0.81524-6.9207-4.0553-8.2348-5.4068-1.5616-1.606-2.3495-3.0229-2.3495-4.2249 0-0.88237 0.18988-0.96376 1.56-0.6687 0.858 0.18477 2.1 0.60494 2.76 0.93373 1.7481 0.87082 6.1117 1.8225 6.6972 1.4607 0.27653-0.17091 0.50278-1.054 0.50278-1.9624 0-0.92182 0.24319-1.6517 0.55032-1.6517 0.57557 0 4.6869 2.6236 6.5067 4.1521 0.58135 0.48832 2.1917 1.5359 3.5786 2.3279 2.7805 1.5879 6.7869 5.2484 7.2995 6.6694 0.89479 2.4804 1.2622 7.7498 0.72928 10.459-0.77474 3.3963-1.9877 6.4127-3.268 9.4862-1.2537 2.927-2.9284 5.3494-4.2249 7.7353-3.5456 6.574-11.731 15.774-17.914 20.135-3.5092 2.8672-7.2815 4.95-11.257 6.5405-3.3339 1.3199-4.9793 2.6307-5.0393 4.0146-0.0411 0.94837-1.1623 2.4-1.8536 2.4-0.31463 0-0.54708-0.7845-0.54708-1.8463 0-4.1903-2.7084-6.6603-6.6632-6.0766-4.1697 0.61538-7.4551 3.632-7.1674 6.5811 0.11635 1.1927 0.42367 1.6076 1.3506 1.8232 0.66 0.15354 1.4769 0.85389 1.8154 1.5563 0.56517 1.1729 0.47135 1.4777-1.1495 3.7338-1.6026 2.2307-1.7669 2.7514-1.7865 5.6625-0.0118 1.7633 0.243 3.6919 0.5664 4.2859 0.93576 1.7188-0.25698 1.3418-2.3377-0.73897zm-38.518-3.9426c-0.99312-1.1599-2.7501-6.4134-2.7501-8.2232 0-1.4346 1.4221-4.3334 2.9268-5.9663 0.67871-0.73648 0.9132-1.7057 0.9132-3.7746 0-3.8069 1.7726-7.0577 5.0025-9.174 2.7381-1.7941 11.656-1.6408 13.102 0.22518 1.0303 1.3293 0.67699 1.5073-2.3847 1.2012-3.9183-0.39172-7.8544 0.99046-9.9049 3.4782-1.9152 2.3234-2.1088 3.7021-0.70507 5.0208 1.8102 1.7006 1.4971 3.724-0.88115 5.4542-4.4291 3.2223-4.5859 3.9602-4.3953 8.237 0.13161 2.6572 0.23279 4.0967 0.10592 4.2236-0.12689 0.12688-0.5901-0.18905-1.0294-0.70209zm57.175-88.043c-3.811-3.0061-6.6974-4.9527-7.1138-7.2142-0.41276-1.8256-1.0287-3.2848-1.6791-4.3408-1.2681-2.0589-1.5809-4.9597-0.63652-5.904 0.67725-0.67726 2.4279-0.60655 3.4794-0.13574 0.89082 0.48919 1.8914 1.2404 3.8705 2.2182 3.9404 1.947 7.5164 4.1465 8.0929 6.5973 0.64539 2.7274 1.4383 7.4553-0.27481 9.8482-1.1088 1.1088-3.5556 0.65295-5.7386-1.069zm30.065-1.2388c-5.5168-0.39168-6.1981-0.54643-9.9232-2.2541-2.8419-1.3027-2.9957-1.516-4.2567-5.9021-0.34153-1.188-0.90353-2.7374-1.2489-3.443-0.58472-1.1948-0.52427-1.3703 0.87891-2.551 1.3097-1.102 1.8814-1.2526 4.37-1.151 4.3818 0.17883 8.7026 1.1317 10.745 2.3695 3.2529 1.9717 4.6158 3.6182 7.2497 8.758 0.97179 1.8963 0.43307 3.4928-1.3935 4.1295-1.6432 0.50413-4.4035 0.20612-6.421 0.0441zm-51.252-5.4524c-3.0938-1.0542-5.9972-3.1732-7.9796-5.8237-0.39492-0.528-1.6351-1.9106-2.7561-3.0724-2.4168-2.5049-2.9848-4.3716-1.855-6.096 0.67931-1.0368 1.0793-1.1834 2.8024-1.0278 1.1055 0.0998 2.9194 0.65283 4.0309 1.2289 2.659 0.62852 4.4354 2.3501 6.6983 3.4467 1.9459 0.74212 4.2191 4.0056 5.2463 6.1324 0.96544 1.9988 0.93531 3.6594-0.0956 5.2682-0.86765 1.354-1.9834 1.3437-6.0918-0.0563zm9.9818-17.426c-1.9481-0.54241-5.3494-2.8539-7.8-5.3008-1.386-1.3839-1.8612-1.6606-2.52-2.8109-0.77255-1.2788-1.5684-2.4153-1.92-3.8939 0-1.4752 2.2379-3.4771 3.9094-3.4971 2.4759-0.0296 7.4866 1.923 11.334 4.4168 2.1452 1.3904 4.5453 2.887 5.3336 3.3257 1.7768 0.98887 4.0351 4.2993 3.6383 5.3333-0.25811 0.67263-1.8698 1.5146-4.0554 2.1186-1.3073 0.36128-6.9419 0.58056-7.92 0.30821zm-37.881-4.5978c-0.75635-0.858-2.5423-3.934-3.9687-6.8354-3.0118-6.1263-3.1859-7.8538-0.86991-8.6294 1.2615-0.61451 2.575-1.2397 3.4935-1.0196 1.1973 0.39256 1.3182 0.49053 2.8033 0.60201s3.5918 0.64206 4.6817 1.1791c2.0843 1.027 4.0168 2.7852 5.4991 5.1543 0.60386 0.82918 1.0348 1.9619 1.0424 2.9492 0 1.5837-0.32 2.24-1.827 3.747-2.3729 2.3729-6.0558 4.413-7.9666 4.413-1.1045 0-1.8837-0.42093-2.8878-1.56zm15.133-14.616c-1.6637-0.67208-2.9012-2.3416-3.4399-4.6411-0.21848-1.4043-1.4741-2.2139-1.3714-3.9727 0.20676-1.152-0.23191-1.603-2.32-2.3854-2.6258-0.98377-2.8419-1.2587-4.2964-5.4652-1.3331-3.8553-1.4079-6.2958-0.22582-7.3656 0.94309-0.85348 2.7393-1.0634 3.1678-0.37013 0.14421 0.23334 1.2308 0.87956 2.4147 1.436 1.1838 0.55648 2.5166 1.6076 2.9616 2.3357 0.44505 0.72818 1.5929 2.512 2.5508 3.964 0.95792 1.452 2.0277 3.2102 2.3773 3.9072s1.2059 1.5532 1.9028 1.9027c1.4899 0.77985 2.8253 1.7867 4.3756 2.3501 1.3061 0.41176 1.4375 0.7903 2.2916 2.292 1.5856 2.7877-0.30819 5.1521-4.4979 5.6156-1.9587 0.18624-3.9633 0.6638-5.8908 0.39673zm-45.48-6.8415c-1.5956-2.5621-2.1846-3.2868-2.4259-6.4355-0.24256-3.1643 0.56631-7.3228 1.6703-8.5874 0.40334-0.462 1.3613-0.84 2.1288-0.84 1.8256 0 5.634 1.2768 6.8801 2.3066 2.5339 2.094 3.303 12.598 1.0522 14.372-0.3281 0.25866-2.38 0.60117-4.5599 0.76114-1.7054 0.0259-3.83-0.0542-4.7457-1.5767zm19.149-3.3639c-1.3345-0.82541-1.56-1.2394-1.56-2.8636 0-1.0443-0.34449-2.1746-0.89364-2.9692-1.2633-2.3186-1.3672-5.1716-0.88664-7.4638 0.29832-0.93384 0.59107-2.2064 1.1876-2.7666 0.97521-0.30952 7.5208 1.1006 8.7856 1.8927 1.3119 0.82158 3.6351 4.7074 4.2114 7.0441 1.3364 5.4184 0.40304 7.0286-4.2444 7.322-1.716 0.10834-3.552 0.32576-4.08 0.48315-0.56416 0.16816-1.6032-0.1117-2.52-0.67874zm-19.08-17.171c-0.528-0.0938-1.4823-0.56722-2.1207-1.052-1.1587-0.87989-1.1597-0.88899-0.57585-5.1385 0.57572-4.1905 1.2067-6.81 2.0355-8.4505 0.23159-0.45842 0.42108-1.4509 0.42108-2.2056 0-1.7984 1.3483-2.9609 3.4341-2.9609 1.8302 0 3.1137 1.0957 4.2172 3.6 0.92107 2.0903 1.3043 12.961 0.49143 13.941-1.1873 1.4306-5.556 2.6837-7.9027 2.2668zm13.614-5.0476c-0.37056-0.69081-0.59287-3.5936-0.61689-8.0554-0.03624-6.7348 0.0038-7.029 1.1624-8.5264 1.0496-1.3566 1.4259-1.5258 3.0022-1.3499 2.4528 0.2736 4.7246 2.3257 6.39 5.7721 1.4998 3.1037 2.1333 8.0756 1.2414 9.7422-0.59906 1.1194-6.7679 3.5032-9.0567 3.4997-1.1072-1e-3 -1.7068-0.30743-2.1224-1.0823zm-29.334-6.9458c-0.68977-0.76346-0.84-1.8486-0.84-6.0674 0-7.6742 1.1453-9.6878 5.04-8.8609 2.8861 0.61274 4.0032 2.5546 4.0927 7.1141 0.12959 6.6014-0.68096 7.9439-5.112 8.4674-1.9286 0.22783-2.4886 0.11284-3.1807-0.65322zm21.24-15.656c-2.1352-0.55836-2.1587-0.58685-2.0477-2.4814 0.10428-2.4057 1.394-4.6255 2.2271-6.5559 1.5645-3.6306 2.4861-4.0861 5.577-2.7565 2.2954 0.98745 2.4037 1.1181 2.4037 2.9002-0.13663 2.4884-1.2071 4.4914-2.0919 6.7729-0.5736 1.3177-1.9734 2.2897-3.0092 2.3929-0.88066 0.0878-1.8708 0.0384-3.0588-0.27226zm-16.983-2.4459c-2.3784-3.1182-1.3801-5.6147 4.0112-10.03 1.9524-1.2693 4.2675-1.2654 6.3816-2.0434 2.2682-0.85011 2.1367-0.86472 2.764 0.30735 0.42806 0.79983 0.29785 1.3653-0.69074 3-1.8624 3.0795-9.0597 10.414-10.219 10.414-0.56367 0-1.5313-0.70966-2.247-1.648zm29.623-0.54806c-0.68748-1.7915 3.1229-10.531 4.9556-11.366 0.94879-0.43229 1.3294-0.33325 2.3293 0.60615 2.2012 2.0679 1.4164 5.0138-2.4808 9.3134-2.0976 2.3141-4.2253 2.9546-4.8042 1.4461zm-0.26444-25.14c-2.3957-0.98194-3.8794-2.3189-5.7929-3.1322-0.98034-0.40962-1.7824-0.90771-1.7824-1.1069 0-0.19917 0.54-1.1568 1.2-2.1281 1.4765-2.8544 3.3209-5.2246 4.7937-7.9369 0.71225-1.3433 1.5834-2.52 2.6579-2.52 0.71444 0 1.8141 0.39743 2.4437 0.88318 1.1108 0.85701 4.2753 2.1462 4.5627 1.8589 0.07826-0.0783 0.47603-2.0561 0.88392-4.3951 0.73615-4.2214 1.3873-5.7305 2.3363-5.4142 0.27173 0.09058 0.55093 1.5024 0.62044 3.1373s0.54107 3.8208 1.0215 5.8763c0.43558 1.8638 1.0561 3.5647 1.346 7.736 0.07096 2.2571 0.21085 4.6792-0.15294 6.8077-0.20292 0.94892-1.3674-4.5e-4 -2.5877-0.27969-1.9307-0.44181-2.4945-0.37419-4.3436 0.52095-2.8574 1.0624-5.211 0.78904-7.2065 0.09274z" stroke-width=".48"/> </svg>